<mxfile host="app.diagrams.net" modified="2023-12-22T19:42:45.879Z" agent="Mozilla/5.0 (Windows NT 10.0; Win64; x64) AppleWebKit/537.36 (KHTML, like Gecko) Chrome/120.0.0.0 Safari/537.36" etag="_NUD3u9qoDOKbnG6Veqw" version="22.1.11" type="device">
  <diagram name="Pagina-1" id="IsNwMwwFBD3eka7l-O14">
    <mxGraphModel dx="989" dy="514" grid="1" gridSize="10" guides="1" tooltips="1" connect="1" arrows="1" fold="1" page="1" pageScale="1" pageWidth="2336" pageHeight="1654" math="0" shadow="0">
      <root>
        <mxCell id="0" />
        <mxCell id="1" parent="0" />
        <mxCell id="oyhMuyfjxNFyOdfhJcpA-1" value="Aggiungi film" style="ellipse;whiteSpace=wrap;html=1;" vertex="1" parent="1">
          <mxGeometry x="690" y="170" width="130" height="60" as="geometry" />
        </mxCell>
        <mxCell id="oyhMuyfjxNFyOdfhJcpA-2" value="Modifica film" style="ellipse;whiteSpace=wrap;html=1;" vertex="1" parent="1">
          <mxGeometry x="690" y="250" width="130" height="60" as="geometry" />
        </mxCell>
        <mxCell id="oyhMuyfjxNFyOdfhJcpA-3" value="Modifica proiezione" style="ellipse;whiteSpace=wrap;html=1;" vertex="1" parent="1">
          <mxGeometry x="690" y="490" width="130" height="60" as="geometry" />
        </mxCell>
        <mxCell id="oyhMuyfjxNFyOdfhJcpA-4" value="Aggiungi proiezione" style="ellipse;whiteSpace=wrap;html=1;" vertex="1" parent="1">
          <mxGeometry x="690" y="410" width="130" height="60" as="geometry" />
        </mxCell>
        <mxCell id="oyhMuyfjxNFyOdfhJcpA-5" value="Gestore &lt;br&gt;catalogo" style="shape=umlActor;verticalLabelPosition=bottom;verticalAlign=top;html=1;" vertex="1" parent="1">
          <mxGeometry x="450" y="350" width="30" height="60" as="geometry" />
        </mxCell>
        <mxCell id="oyhMuyfjxNFyOdfhJcpA-6" value="" style="endArrow=none;html=1;rounded=0;entryX=0;entryY=0.5;entryDx=0;entryDy=0;exitX=0.867;exitY=0.467;exitDx=0;exitDy=0;exitPerimeter=0;" edge="1" parent="1" source="oyhMuyfjxNFyOdfhJcpA-5" target="oyhMuyfjxNFyOdfhJcpA-1">
          <mxGeometry width="50" height="50" relative="1" as="geometry">
            <mxPoint x="550" y="510" as="sourcePoint" />
            <mxPoint x="600" y="460" as="targetPoint" />
          </mxGeometry>
        </mxCell>
        <mxCell id="oyhMuyfjxNFyOdfhJcpA-7" value="" style="endArrow=none;html=1;rounded=0;entryX=0;entryY=0.5;entryDx=0;entryDy=0;" edge="1" parent="1" target="oyhMuyfjxNFyOdfhJcpA-2">
          <mxGeometry width="50" height="50" relative="1" as="geometry">
            <mxPoint x="480" y="380" as="sourcePoint" />
            <mxPoint x="800" y="220" as="targetPoint" />
          </mxGeometry>
        </mxCell>
        <mxCell id="oyhMuyfjxNFyOdfhJcpA-8" value="" style="endArrow=none;html=1;rounded=0;entryX=0;entryY=0.5;entryDx=0;entryDy=0;" edge="1" parent="1" target="oyhMuyfjxNFyOdfhJcpA-4">
          <mxGeometry width="50" height="50" relative="1" as="geometry">
            <mxPoint x="480" y="390" as="sourcePoint" />
            <mxPoint x="790" y="250" as="targetPoint" />
          </mxGeometry>
        </mxCell>
        <mxCell id="oyhMuyfjxNFyOdfhJcpA-9" value="" style="endArrow=none;html=1;rounded=0;entryX=0;entryY=0.5;entryDx=0;entryDy=0;" edge="1" parent="1" target="oyhMuyfjxNFyOdfhJcpA-3">
          <mxGeometry width="50" height="50" relative="1" as="geometry">
            <mxPoint x="480" y="390" as="sourcePoint" />
            <mxPoint x="790" y="250" as="targetPoint" />
          </mxGeometry>
        </mxCell>
        <mxCell id="oyhMuyfjxNFyOdfhJcpA-10" value="Dati film errati" style="ellipse;whiteSpace=wrap;html=1;" vertex="1" parent="1">
          <mxGeometry x="970" y="210" width="130" height="60" as="geometry" />
        </mxCell>
        <mxCell id="oyhMuyfjxNFyOdfhJcpA-11" value="Extends" style="endArrow=block;endSize=16;endFill=0;html=1;rounded=0;entryX=1;entryY=0.5;entryDx=0;entryDy=0;exitX=0;exitY=0.5;exitDx=0;exitDy=0;" edge="1" parent="1" source="oyhMuyfjxNFyOdfhJcpA-10" target="oyhMuyfjxNFyOdfhJcpA-1">
          <mxGeometry width="160" relative="1" as="geometry">
            <mxPoint x="890" y="333" as="sourcePoint" />
            <mxPoint x="760" y="253" as="targetPoint" />
          </mxGeometry>
        </mxCell>
        <mxCell id="oyhMuyfjxNFyOdfhJcpA-12" value="Extends" style="endArrow=block;endSize=16;endFill=0;html=1;rounded=0;entryX=1;entryY=0.5;entryDx=0;entryDy=0;exitX=0;exitY=0.5;exitDx=0;exitDy=0;" edge="1" parent="1" source="oyhMuyfjxNFyOdfhJcpA-10" target="oyhMuyfjxNFyOdfhJcpA-2">
          <mxGeometry width="160" relative="1" as="geometry">
            <mxPoint x="870" y="373" as="sourcePoint" />
            <mxPoint x="740" y="293" as="targetPoint" />
          </mxGeometry>
        </mxCell>
        <mxCell id="oyhMuyfjxNFyOdfhJcpA-15" value="Dati proiezione errati" style="ellipse;whiteSpace=wrap;html=1;" vertex="1" parent="1">
          <mxGeometry x="970" y="550" width="130" height="60" as="geometry" />
        </mxCell>
        <mxCell id="oyhMuyfjxNFyOdfhJcpA-16" value="Extends" style="endArrow=block;endSize=16;endFill=0;html=1;rounded=0;entryX=1;entryY=0.5;entryDx=0;entryDy=0;exitX=0;exitY=0.5;exitDx=0;exitDy=0;" edge="1" parent="1" source="oyhMuyfjxNFyOdfhJcpA-15" target="oyhMuyfjxNFyOdfhJcpA-4">
          <mxGeometry width="160" relative="1" as="geometry">
            <mxPoint x="880" y="430" as="sourcePoint" />
            <mxPoint x="730" y="400" as="targetPoint" />
          </mxGeometry>
        </mxCell>
        <mxCell id="oyhMuyfjxNFyOdfhJcpA-17" value="Extends" style="endArrow=block;endSize=16;endFill=0;html=1;rounded=0;entryX=1;entryY=0.5;entryDx=0;entryDy=0;exitX=0;exitY=0.5;exitDx=0;exitDy=0;" edge="1" parent="1" source="oyhMuyfjxNFyOdfhJcpA-15" target="oyhMuyfjxNFyOdfhJcpA-3">
          <mxGeometry width="160" relative="1" as="geometry">
            <mxPoint x="890" y="480" as="sourcePoint" />
            <mxPoint x="740" y="450" as="targetPoint" />
          </mxGeometry>
        </mxCell>
        <mxCell id="oyhMuyfjxNFyOdfhJcpA-18" value="Sala occupata" style="ellipse;whiteSpace=wrap;html=1;" vertex="1" parent="1">
          <mxGeometry x="970" y="350" width="130" height="60" as="geometry" />
        </mxCell>
        <mxCell id="oyhMuyfjxNFyOdfhJcpA-19" value="Extends" style="endArrow=block;endSize=16;endFill=0;html=1;rounded=0;entryX=1;entryY=0.5;entryDx=0;entryDy=0;exitX=0;exitY=0.5;exitDx=0;exitDy=0;" edge="1" parent="1" source="oyhMuyfjxNFyOdfhJcpA-18" target="oyhMuyfjxNFyOdfhJcpA-4">
          <mxGeometry width="160" relative="1" as="geometry">
            <mxPoint x="830" y="570" as="sourcePoint" />
            <mxPoint x="680" y="610" as="targetPoint" />
          </mxGeometry>
        </mxCell>
        <mxCell id="oyhMuyfjxNFyOdfhJcpA-20" value="Extends" style="endArrow=block;endSize=16;endFill=0;html=1;rounded=0;entryX=1;entryY=0.5;entryDx=0;entryDy=0;exitX=0;exitY=0.5;exitDx=0;exitDy=0;" edge="1" parent="1" source="oyhMuyfjxNFyOdfhJcpA-18" target="oyhMuyfjxNFyOdfhJcpA-3">
          <mxGeometry width="160" relative="1" as="geometry">
            <mxPoint x="940" y="430" as="sourcePoint" />
            <mxPoint x="790" y="470" as="targetPoint" />
          </mxGeometry>
        </mxCell>
        <mxCell id="oyhMuyfjxNFyOdfhJcpA-21" value="Elimina film" style="ellipse;whiteSpace=wrap;html=1;" vertex="1" parent="1">
          <mxGeometry x="690" y="330" width="130" height="60" as="geometry" />
        </mxCell>
        <mxCell id="oyhMuyfjxNFyOdfhJcpA-22" value="Elimina proiezione" style="ellipse;whiteSpace=wrap;html=1;" vertex="1" parent="1">
          <mxGeometry x="690" y="570" width="130" height="60" as="geometry" />
        </mxCell>
        <mxCell id="oyhMuyfjxNFyOdfhJcpA-23" value="" style="endArrow=none;html=1;rounded=0;entryX=0;entryY=0.5;entryDx=0;entryDy=0;" edge="1" parent="1" target="oyhMuyfjxNFyOdfhJcpA-21">
          <mxGeometry width="50" height="50" relative="1" as="geometry">
            <mxPoint x="480" y="390" as="sourcePoint" />
            <mxPoint x="790" y="420" as="targetPoint" />
          </mxGeometry>
        </mxCell>
        <mxCell id="oyhMuyfjxNFyOdfhJcpA-24" value="" style="endArrow=none;html=1;rounded=0;entryX=0;entryY=0.5;entryDx=0;entryDy=0;exitX=0.967;exitY=0.8;exitDx=0;exitDy=0;exitPerimeter=0;" edge="1" parent="1" source="oyhMuyfjxNFyOdfhJcpA-5" target="oyhMuyfjxNFyOdfhJcpA-22">
          <mxGeometry width="50" height="50" relative="1" as="geometry">
            <mxPoint x="510" y="440" as="sourcePoint" />
            <mxPoint x="566" y="507.5" as="targetPoint" />
          </mxGeometry>
        </mxCell>
      </root>
    </mxGraphModel>
  </diagram>
</mxfile>
